<svg xmlns="http://www.w3.org/2000/svg" width="554" height="554" viewBox="0 0 554 554">
<g>
<path d="M 453.58 427.82 L 448.50 430.50 L 279.50 430.65 C186.55,430.74 109.07,430.47 107.33,430.05 C96.58,427.46 87.19,415.98 87.04,405.25 L 87.00 402.00 L 188.25 401.95 L 289.50 401.90 L 310.00 374.85 C321.27,359.97 333.88,343.39 338.00,338.00 C342.12,332.61 361.21,307.57 380.41,282.35 C399.62,257.13 416.86,234.59 418.73,232.25 L 422.13 228.00 L 468.00 228.00 L 468.00 317.99 C468.00,403.28 467.90,408.23 466.14,412.87 C463.47,419.90 459.39,424.75 453.58,427.82 ZM 128.45 341.22 L 126.50 343.94 L 106.75 343.97 L 87.00 344.00 L 87.00 244.68 C87.00,239.29 87.00,234.18 87.00,229.34 C86.98,149.29 86.98,140.72 91.11,135.31 C91.86,134.33 92.73,133.46 93.77,132.29 C95.82,129.97 99.53,127.17 102.00,126.06 C106.34,124.11 108.33,124.05 159.00,124.21 C187.88,124.30 207.45,124.66 202.50,125.00 C197.55,125.34 194.85,125.71 196.50,125.83 C198.84,125.99 199.17,126.25 198.00,127.00 C197.18,127.53 196.95,127.98 197.50,127.98 C198.05,127.99 198.54,129.69 198.59,131.75 C198.64,133.81 199.46,139.54 200.41,144.47 C201.57,150.47 201.93,155.33 201.48,159.14 C200.90,164.13 201.11,165.23 203.14,167.97 C203.61,168.62 203.99,169.11 204.29,169.66 C205.49,171.84 205.36,174.75 204.68,190.45 L 204.63 191.50 C204.51,194.22 204.78,194.49 207.50,194.36 C212.80,194.11 238.05,188.79 250.32,185.34 C251.98,184.87 252.00,184.98 250.59,186.66 C249.74,187.67 247.13,191.04 244.78,194.14 C242.42,197.25 227.00,216.75 210.50,237.48 C194.00,258.21 178.01,278.40 174.98,282.34 C171.94,286.28 160.67,300.52 149.93,314.00 C139.19,327.48 129.53,339.72 128.45,341.22 ZM 251.15 382.25 L 247.59 387.00 L 236.54 386.76 C230.47,386.62 194.34,386.40 156.25,386.25 L 87.00 385.99 L 87.00 379.00 L 164.25 379.00 L 241.50 379.00 L 251.50 365.40 C257.00,357.92 262.17,350.80 263.00,349.58 C263.83,348.36 267.29,343.56 270.70,338.93 C274.11,334.29 287.72,315.65 300.94,297.50 C314.16,279.35 334.73,251.11 346.65,234.75 L 368.33 205.00 L 468.00 205.00 L 468.00 211.00 L 421.75 211.03 L 375.50 211.06 L 370.80 217.78 C368.21,221.48 354.60,240.25 340.55,259.50 C326.50,278.75 309.97,301.48 303.82,310.00 C297.67,318.52 288.98,330.45 284.51,336.50 C280.04,342.55 271.51,354.25 265.55,362.50 C259.59,370.75 253.11,379.64 251.15,382.25 ZM 192.50 346.39 L 177.50 364.99 L 87.00 365.00 L 87.00 359.00 L 173.65 359.00 L 178.68 352.75 C181.44,349.31 193.53,334.12 205.53,319.00 C257.16,253.94 274.56,232.03 297.04,203.76 L 317.50 178.02 L 392.75 178.01 L 468.00 178.00 L 468.00 185.00 L 323.42 185.00 L 319.91 189.25 C317.98,191.59 311.50,199.57 305.49,207.00 C299.49,214.43 291.83,223.88 288.47,228.00 C282.63,235.17 267.31,254.07 245.51,281.00 C239.95,287.88 232.49,297.06 228.95,301.41 C216.55,316.63 207.38,327.94 192.50,346.39 Z" fill="rgb(30,79,159)"/>
<path d="M 242.66 196.87 C243.67,195.57 244.40,194.65 244.78,194.14 C247.13,191.04 249.74,187.67 250.59,186.66 C252.00,184.98 251.98,184.87 250.32,185.34 C238.05,188.79 212.80,194.11 207.50,194.36 C204.78,194.49 204.51,194.22 204.63,191.50 L 204.68 190.45 C205.36,174.75 205.49,171.84 204.29,169.66 C203.99,169.11 203.61,168.62 203.14,167.97 C201.11,165.23 200.90,164.13 201.48,159.14 C201.93,155.33 201.57,150.47 200.41,144.47 C199.46,139.54 198.64,133.81 198.59,131.75 C198.54,129.69 198.05,127.99 197.50,127.98 C196.95,127.98 197.18,127.53 198.00,127.00 C199.17,126.25 198.84,125.99 196.50,125.83 C194.85,125.71 197.55,125.34 202.50,125.00 C207.45,124.66 187.88,124.30 159.00,124.21 C108.33,124.05 106.34,124.11 102.00,126.06 C101.69,126.20 101.35,126.37 101.01,126.56 C101.53,126.26 102.03,126.00 102.50,125.78 C107.43,123.53 108.10,123.50 153.00,123.17 C203.64,122.80 319.34,124.08 314.21,124.94 C312.40,125.25 310.94,125.84 310.96,126.25 C310.98,126.66 310.98,127.11 310.96,127.25 C310.94,127.39 310.71,132.35 310.46,138.28 C310.11,146.26 310.34,149.78 311.37,151.78 C312.12,153.28 313.06,155.51 313.44,156.75 L 314.13 159.00 L 272.50 159.01 L 259.00 176.17 C254.96,181.30 248.92,188.95 242.66,196.87 ZM 175.33 281.88 C178.91,277.27 193.05,259.42 208.12,240.47 C201.69,248.59 195.25,256.73 190.20,263.11 C186.06,268.34 180.83,274.94 175.33,281.88 ZM 94.88 131.14 C94.48,131.53 94.10,131.91 93.77,132.29 C92.73,133.46 91.86,134.33 91.11,135.31 C90.66,135.90 90.27,136.52 89.91,137.27 C90.27,136.52 90.66,135.90 91.11,135.31 C91.86,134.33 92.73,133.46 93.77,132.28 C94.10,131.91 94.47,131.53 94.88,131.14 Z" fill="rgb(86,107,176)"/>
<path d="M 252.07 184.97 C254.70,181.63 257.08,178.61 259.00,176.17 L 272.50 159.01 L 314.13 159.00 L 313.44 156.75 C313.06,155.51 312.12,153.28 311.37,151.78 C310.34,149.78 310.11,146.26 310.46,138.28 C310.71,132.35 310.94,127.39 310.96,127.25 C310.98,127.11 310.98,126.66 310.96,126.25 C310.94,125.84 312.40,125.25 314.21,124.94 C317.63,124.37 267.50,123.61 218.66,123.28 L 259.50 123.19 C406.67,122.89 432.62,123.18 431.44,125.10 C431.13,125.59 431.36,126.00 431.94,126.00 C432.52,126.00 433.00,127.60 433.00,129.57 C433.00,131.53 433.45,133.96 433.99,134.98 C434.54,136.00 435.14,139.57 435.33,142.92 C435.52,146.27 435.97,149.31 436.34,149.67 C436.70,150.04 436.37,151.05 435.59,151.92 C434.82,152.79 434.03,154.62 433.84,156.00 L 433.50 158.50 L 352.85 159.00 L 272.20 159.50 L 259.55 175.50 C257.58,177.99 255.00,181.26 252.07,184.97 ZM 122.17 123.47 C107.26,123.74 105.88,124.24 102.50,125.78 L 107.50 123.50 ZM 175.33 281.88 C180.83,274.94 186.06,268.34 190.20,263.11 C195.25,256.73 201.69,248.59 208.12,240.47 C208.60,239.87 209.08,239.26 209.56,238.66 C202.12,248.06 194.63,257.52 189.20,264.38 C185.36,269.22 180.48,275.39 175.28,281.95 Z" fill="rgb(151,163,206)"/>
<path d="M 0.00 277.00 L 0.00 0.00 L 277.00 0.00 L 554.00 0.00 L 554.00 277.00 L 554.00 554.00 L 277.00 554.00 L 0.00 554.00 L 0.00 277.00 ZM 453.58 427.82 C459.39,424.75 463.47,419.90 466.14,412.87 C467.90,408.23 468.00,403.28 468.00,317.99 L 468.00 228.00 L 445.07 228.00 L 422.13 228.00 L 418.73 232.25 C416.86,234.59 399.62,257.13 380.41,282.35 C361.21,307.57 342.12,332.61 338.00,338.00 C333.88,343.39 321.27,359.97 310.00,374.85 L 289.50 401.90 L 188.25 401.95 L 87.00 402.00 L 87.04 405.25 C87.19,415.98 96.58,427.46 107.33,430.05 C109.07,430.47 186.55,430.74 279.50,430.65 L 448.50 430.50 L 453.58 427.82 ZM 251.15 382.25 C253.11,379.64 259.59,370.75 265.55,362.50 C271.51,354.25 280.04,342.55 284.51,336.50 C288.98,330.45 297.67,318.52 303.82,310.00 C309.97,301.48 326.50,278.75 340.55,259.50 C354.60,240.25 368.21,221.48 370.80,217.78 L 375.50 211.06 L 421.75 211.03 L 468.00 211.00 L 468.00 208.00 L 468.00 205.00 L 418.16 205.00 L 368.33 205.00 L 346.65 234.75 C334.73,251.11 314.16,279.35 300.94,297.50 C287.72,315.65 274.11,334.29 270.70,338.93 C267.29,343.56 263.83,348.36 263.00,349.58 C262.17,350.80 257.00,357.92 251.50,365.40 L 241.50 379.00 L 164.25 379.00 L 87.00 379.00 L 87.00 382.49 L 87.00 385.99 L 156.25 386.25 C194.34,386.40 230.47,386.62 236.54,386.76 L 247.59 387.00 L 251.15 382.25 ZM 192.50 346.39 C207.38,327.94 216.55,316.63 228.95,301.41 C232.49,297.06 239.95,287.88 245.51,281.00 C267.31,254.07 282.63,235.17 288.47,228.00 C291.83,223.88 299.49,214.43 305.49,207.00 C311.50,199.57 317.98,191.59 319.91,189.25 L 323.42 185.00 L 395.71 185.00 L 468.00 185.00 L 468.00 181.50 L 468.00 178.00 L 392.75 178.01 L 317.50 178.02 L 297.04 203.76 C274.56,232.03 257.16,253.94 205.53,319.00 C193.53,334.12 181.44,349.31 178.68,352.75 L 173.65 359.00 L 130.33 359.00 L 87.00 359.00 L 87.00 362.00 L 87.00 365.00 L 132.25 364.99 L 177.50 364.99 L 192.50 346.39 ZM 128.45 341.22 C129.52,339.72 139.51,327.02 150.65,313.00 C161.78,298.98 179.13,277.10 189.20,264.38 C199.26,251.67 216.37,230.07 227.20,216.38 C238.04,202.70 252.60,184.30 259.55,175.50 L 272.20 159.50 L 352.85 159.00 L 433.50 158.50 L 433.84 156.00 C434.03,154.62 434.82,152.79 435.59,151.92 C436.37,151.05 436.70,150.04 436.34,149.67 C435.97,149.31 435.52,146.27 435.33,142.92 C435.14,139.57 434.54,136.00 433.99,134.98 C433.45,133.96 433.00,131.53 433.00,129.57 C433.00,127.60 432.52,126.00 431.94,126.00 C431.36,126.00 431.13,125.59 431.44,125.10 C432.62,123.18 406.67,122.89 259.50,123.19 L 107.50 123.50 L 102.50 125.78 C99.75,127.04 95.82,129.96 93.77,132.28 C86.63,140.36 87.00,134.29 87.00,244.68 L 87.00 344.00 L 106.75 343.97 L 126.50 343.94 L 128.45 341.22 Z" fill="rgb(245,247,250)"/>
</g>
</svg>